<!DOCTYPE svg PUBLIC "-//W3C//DTD SVG 1.1//EN" "http://www.w3.org/Graphics/SVG/1.1/DTD/svg11.dtd">
<!-- Uploaded to: SVG Repo, www.svgrepo.com, Transformed by: SVG Repo Mixer Tools -->
<svg width="800px" height="800px" viewBox="0 0 24 24" fill="none" xmlns="http://www.w3.org/2000/svg">
<g id="SVGRepo_bgCarrier" stroke-width="0"/>
<g id="SVGRepo_tracerCarrier" stroke-linecap="round" stroke-linejoin="round"/>
<g id="SVGRepo_iconCarrier">
<path d="M3.23 7.913 7.91 3.23c.15-.15.35-.23.57-.23h7.05c.21 0 .42.08.57.23l4.67 4.673c.15.15.23.35.23.57v7.054c0 .21-.08.42-.23.57L16.1 20.77c-.15.15-.35.23-.57.23H8.47a.81.81 0 0 1-.57-.23l-4.67-4.673a.793.793 0 0 1-.23-.57V8.473c0-.21.08-.42.23-.57v.01Z" fill="#4b3fbd" fill-opacity=".16" stroke="#4b3fbd" stroke-width="1.5" stroke-miterlimit="10"/>
</g>
</svg>